<mxfile host="app.diagrams.net" modified="2023-10-26T13:03:13.003Z" agent="Mozilla/5.0 (Windows NT 10.0; Win64; x64) AppleWebKit/537.36 (KHTML, like Gecko) Chrome/118.0.0.0 Safari/537.36" etag="ZvKbVE2e9VZNyOPbugdP" version="22.0.8" type="device">
  <diagram id="C5RBs43oDa-KdzZeNtuy" name="Page-1">
    <mxGraphModel dx="3088" dy="1937" grid="1" gridSize="10" guides="1" tooltips="1" connect="1" arrows="1" fold="1" page="1" pageScale="1" pageWidth="827" pageHeight="1169" background="#FFFFFF" math="0" shadow="0">
      <root>
        <mxCell id="WIyWlLk6GJQsqaUBKTNV-0" />
        <mxCell id="WIyWlLk6GJQsqaUBKTNV-1" parent="WIyWlLk6GJQsqaUBKTNV-0" />
        <mxCell id="zkfFHV4jXpPFQw0GAbJ--0" value="Item" style="swimlane;fontStyle=1;align=center;verticalAlign=top;childLayout=stackLayout;horizontal=1;startSize=26;horizontalStack=0;resizeParent=1;resizeLast=0;collapsible=1;marginBottom=0;rounded=0;shadow=0;strokeWidth=1;" parent="WIyWlLk6GJQsqaUBKTNV-1" vertex="1">
          <mxGeometry x="20" y="432" width="210" height="458" as="geometry">
            <mxRectangle x="230" y="140" width="160" height="26" as="alternateBounds" />
          </mxGeometry>
        </mxCell>
        <mxCell id="zkfFHV4jXpPFQw0GAbJ--1" value="- _Id: int {readOnly}" style="text;align=left;verticalAlign=top;spacingLeft=4;spacingRight=4;overflow=hidden;rotatable=0;points=[[0,0.5],[1,0.5]];portConstraint=eastwest;rounded=0;" parent="zkfFHV4jXpPFQw0GAbJ--0" vertex="1">
          <mxGeometry y="26" width="210" height="26" as="geometry" />
        </mxCell>
        <mxCell id="zkfFHV4jXpPFQw0GAbJ--2" value="- _name:string" style="text;align=left;verticalAlign=top;spacingLeft=4;spacingRight=4;overflow=hidden;rotatable=0;points=[[0,0.5],[1,0.5]];portConstraint=eastwest;rounded=0;shadow=0;html=0;" parent="zkfFHV4jXpPFQw0GAbJ--0" vertex="1">
          <mxGeometry y="52" width="210" height="26" as="geometry" />
        </mxCell>
        <mxCell id="zkfFHV4jXpPFQw0GAbJ--3" value="- _info: string" style="text;align=left;verticalAlign=top;spacingLeft=4;spacingRight=4;overflow=hidden;rotatable=0;points=[[0,0.5],[1,0.5]];portConstraint=eastwest;rounded=0;shadow=0;html=0;" parent="zkfFHV4jXpPFQw0GAbJ--0" vertex="1">
          <mxGeometry y="78" width="210" height="26" as="geometry" />
        </mxCell>
        <mxCell id="sBGS1Uir1IaNzIVXZRek-6" value="- _cost: double" style="text;align=left;verticalAlign=top;spacingLeft=4;spacingRight=4;overflow=hidden;rotatable=0;points=[[0,0.5],[1,0.5]];portConstraint=eastwest;rounded=0;shadow=0;html=0;" parent="zkfFHV4jXpPFQw0GAbJ--0" vertex="1">
          <mxGeometry y="104" width="210" height="26" as="geometry" />
        </mxCell>
        <mxCell id="zkfFHV4jXpPFQw0GAbJ--4" value="" style="line;html=1;strokeWidth=1;align=left;verticalAlign=middle;spacingTop=-1;spacingLeft=3;spacingRight=3;rotatable=0;labelPosition=right;points=[];portConstraint=eastwest;rounded=0;" parent="zkfFHV4jXpPFQw0GAbJ--0" vertex="1">
          <mxGeometry y="130" width="210" height="8" as="geometry" />
        </mxCell>
        <mxCell id="zkfFHV4jXpPFQw0GAbJ--5" value="+ Id {get;}: int()" style="text;align=left;verticalAlign=top;spacingLeft=4;spacingRight=4;overflow=hidden;rotatable=0;points=[[0,0.5],[1,0.5]];portConstraint=eastwest;rounded=0;" parent="zkfFHV4jXpPFQw0GAbJ--0" vertex="1">
          <mxGeometry y="138" width="210" height="26" as="geometry" />
        </mxCell>
        <mxCell id="sBGS1Uir1IaNzIVXZRek-15" value="+ Name {get; set;}: string()" style="text;align=left;verticalAlign=top;spacingLeft=4;spacingRight=4;overflow=hidden;rotatable=0;points=[[0,0.5],[1,0.5]];portConstraint=eastwest;rounded=0;" parent="zkfFHV4jXpPFQw0GAbJ--0" vertex="1">
          <mxGeometry y="164" width="210" height="26" as="geometry" />
        </mxCell>
        <mxCell id="sBGS1Uir1IaNzIVXZRek-16" value="+ Info {get; set;}: string()" style="text;align=left;verticalAlign=top;spacingLeft=4;spacingRight=4;overflow=hidden;rotatable=0;points=[[0,0.5],[1,0.5]];portConstraint=eastwest;rounded=0;" parent="zkfFHV4jXpPFQw0GAbJ--0" vertex="1">
          <mxGeometry y="190" width="210" height="26" as="geometry" />
        </mxCell>
        <mxCell id="sBGS1Uir1IaNzIVXZRek-17" value="+ Cost {get; set;}: double()" style="text;align=left;verticalAlign=top;spacingLeft=4;spacingRight=4;overflow=hidden;rotatable=0;points=[[0,0.5],[1,0.5]];portConstraint=eastwest;rounded=0;" parent="zkfFHV4jXpPFQw0GAbJ--0" vertex="1">
          <mxGeometry y="216" width="210" height="26" as="geometry" />
        </mxCell>
        <mxCell id="E396M5tWe0iOBY8pmZY7-39" value="+ Category {get; set;}: Category()" style="text;align=left;verticalAlign=top;spacingLeft=4;spacingRight=4;overflow=hidden;rotatable=0;points=[[0,0.5],[1,0.5]];portConstraint=eastwest;rounded=0;shadow=0;html=0;" parent="zkfFHV4jXpPFQw0GAbJ--0" vertex="1">
          <mxGeometry y="242" width="210" height="26" as="geometry" />
        </mxCell>
        <mxCell id="s0CAFuMkxuU7vEHBp4di-2" value="&lt;events&gt;&#xa;" style="text;align=left;verticalAlign=top;spacingLeft=4;spacingRight=4;overflow=hidden;rotatable=0;points=[[0,0.5],[1,0.5]];portConstraint=eastwest;rounded=0;" vertex="1" parent="zkfFHV4jXpPFQw0GAbJ--0">
          <mxGeometry y="268" width="210" height="26" as="geometry" />
        </mxCell>
        <mxCell id="s0CAFuMkxuU7vEHBp4di-3" value="+ NameChanged: EventHandler" style="text;align=left;verticalAlign=top;spacingLeft=4;spacingRight=4;overflow=hidden;rotatable=0;points=[[0,0.5],[1,0.5]];portConstraint=eastwest;rounded=0;" vertex="1" parent="zkfFHV4jXpPFQw0GAbJ--0">
          <mxGeometry y="294" width="210" height="26" as="geometry" />
        </mxCell>
        <mxCell id="s0CAFuMkxuU7vEHBp4di-4" value="+ CostChanged: EventHandler" style="text;align=left;verticalAlign=top;spacingLeft=4;spacingRight=4;overflow=hidden;rotatable=0;points=[[0,0.5],[1,0.5]];portConstraint=eastwest;rounded=0;" vertex="1" parent="zkfFHV4jXpPFQw0GAbJ--0">
          <mxGeometry y="320" width="210" height="26" as="geometry" />
        </mxCell>
        <mxCell id="s0CAFuMkxuU7vEHBp4di-5" value="+ InfoChanged: EventHandler" style="text;align=left;verticalAlign=top;spacingLeft=4;spacingRight=4;overflow=hidden;rotatable=0;points=[[0,0.5],[1,0.5]];portConstraint=eastwest;rounded=0;" vertex="1" parent="zkfFHV4jXpPFQw0GAbJ--0">
          <mxGeometry y="346" width="210" height="26" as="geometry" />
        </mxCell>
        <mxCell id="CNYj2VtHb43jAfitieCE-7" value="" style="line;strokeWidth=1;fillColor=none;align=left;verticalAlign=middle;spacingTop=-1;spacingLeft=3;spacingRight=3;rotatable=0;labelPosition=right;points=[];portConstraint=eastwest;strokeColor=inherit;" parent="zkfFHV4jXpPFQw0GAbJ--0" vertex="1">
          <mxGeometry y="372" width="210" height="8" as="geometry" />
        </mxCell>
        <mxCell id="CNYj2VtHb43jAfitieCE-8" value="+ Clone(): Item" style="text;strokeColor=none;fillColor=none;align=left;verticalAlign=top;spacingLeft=4;spacingRight=4;overflow=hidden;rotatable=0;points=[[0,0.5],[1,0.5]];portConstraint=eastwest;whiteSpace=wrap;html=1;" parent="zkfFHV4jXpPFQw0GAbJ--0" vertex="1">
          <mxGeometry y="380" width="210" height="26" as="geometry" />
        </mxCell>
        <mxCell id="CNYj2VtHb43jAfitieCE-15" value="+ Equals(object other): bool" style="text;strokeColor=none;fillColor=none;align=left;verticalAlign=top;spacingLeft=4;spacingRight=4;overflow=hidden;rotatable=0;points=[[0,0.5],[1,0.5]];portConstraint=eastwest;whiteSpace=wrap;html=1;" parent="zkfFHV4jXpPFQw0GAbJ--0" vertex="1">
          <mxGeometry y="406" width="210" height="26" as="geometry" />
        </mxCell>
        <mxCell id="CNYj2VtHb43jAfitieCE-22" value="+ CompareTo(Item other): int" style="text;strokeColor=none;fillColor=none;align=left;verticalAlign=top;spacingLeft=4;spacingRight=4;overflow=hidden;rotatable=0;points=[[0,0.5],[1,0.5]];portConstraint=eastwest;whiteSpace=wrap;html=1;" parent="zkfFHV4jXpPFQw0GAbJ--0" vertex="1">
          <mxGeometry y="432" width="210" height="26" as="geometry" />
        </mxCell>
        <mxCell id="sBGS1Uir1IaNzIVXZRek-0" value="Customer" style="swimlane;fontStyle=1;align=center;verticalAlign=top;childLayout=stackLayout;horizontal=1;startSize=26;horizontalStack=0;resizeParent=1;resizeLast=0;collapsible=1;marginBottom=0;rounded=0;shadow=0;strokeWidth=1;" parent="WIyWlLk6GJQsqaUBKTNV-1" vertex="1">
          <mxGeometry x="-840" y="200" width="230" height="380" as="geometry">
            <mxRectangle x="230" y="140" width="160" height="26" as="alternateBounds" />
          </mxGeometry>
        </mxCell>
        <mxCell id="sBGS1Uir1IaNzIVXZRek-18" value="- _Id: int {readOnly}" style="text;align=left;verticalAlign=top;spacingLeft=4;spacingRight=4;overflow=hidden;rotatable=0;points=[[0,0.5],[1,0.5]];portConstraint=eastwest;rounded=0;fontStyle=0" parent="sBGS1Uir1IaNzIVXZRek-0" vertex="1">
          <mxGeometry y="26" width="230" height="26" as="geometry" />
        </mxCell>
        <mxCell id="sBGS1Uir1IaNzIVXZRek-19" value="- _fullname:string" style="text;align=left;verticalAlign=top;spacingLeft=4;spacingRight=4;overflow=hidden;rotatable=0;points=[[0,0.5],[1,0.5]];portConstraint=eastwest;rounded=0;shadow=0;html=0;" parent="sBGS1Uir1IaNzIVXZRek-0" vertex="1">
          <mxGeometry y="52" width="230" height="26" as="geometry" />
        </mxCell>
        <mxCell id="sBGS1Uir1IaNzIVXZRek-20" value="- _address:Address" style="text;align=left;verticalAlign=top;spacingLeft=4;spacingRight=4;overflow=hidden;rotatable=0;points=[[0,0.5],[1,0.5]];portConstraint=eastwest;rounded=0;shadow=0;html=0;" parent="sBGS1Uir1IaNzIVXZRek-0" vertex="1">
          <mxGeometry y="78" width="230" height="26" as="geometry" />
        </mxCell>
        <mxCell id="Ajz1zNzVbMrPSSMoXpSr-2" value="- _cart:Cart" style="text;align=left;verticalAlign=top;spacingLeft=4;spacingRight=4;overflow=hidden;rotatable=0;points=[[0,0.5],[1,0.5]];portConstraint=eastwest;rounded=0;shadow=0;html=0;" parent="sBGS1Uir1IaNzIVXZRek-0" vertex="1">
          <mxGeometry y="104" width="230" height="26" as="geometry" />
        </mxCell>
        <mxCell id="Ajz1zNzVbMrPSSMoXpSr-5" value="- _orders: List&amp;lt;Order&amp;gt;" style="text;strokeColor=none;fillColor=none;align=left;verticalAlign=middle;spacingLeft=4;spacingRight=4;overflow=hidden;points=[[0,0.5],[1,0.5]];portConstraint=eastwest;rotatable=0;whiteSpace=wrap;html=1;" parent="sBGS1Uir1IaNzIVXZRek-0" vertex="1">
          <mxGeometry y="130" width="230" height="30" as="geometry" />
        </mxCell>
        <mxCell id="Noa36CFvEDPg5Y3MZEn8-2" value="- _discounts: List&amp;lt;IDiscount&amp;gt;" style="text;strokeColor=none;fillColor=none;align=left;verticalAlign=middle;spacingLeft=4;spacingRight=4;overflow=hidden;points=[[0,0.5],[1,0.5]];portConstraint=eastwest;rotatable=0;whiteSpace=wrap;html=1;" parent="sBGS1Uir1IaNzIVXZRek-0" vertex="1">
          <mxGeometry y="160" width="230" height="30" as="geometry" />
        </mxCell>
        <mxCell id="sBGS1Uir1IaNzIVXZRek-4" value="" style="line;html=1;strokeWidth=1;align=left;verticalAlign=middle;spacingTop=-1;spacingLeft=3;spacingRight=3;rotatable=0;labelPosition=right;points=[];portConstraint=eastwest;rounded=0;" parent="sBGS1Uir1IaNzIVXZRek-0" vertex="1">
          <mxGeometry y="190" width="230" height="8" as="geometry" />
        </mxCell>
        <mxCell id="sBGS1Uir1IaNzIVXZRek-21" value="+ Id {get;}: int()" style="text;align=left;verticalAlign=top;spacingLeft=4;spacingRight=4;overflow=hidden;rotatable=0;points=[[0,0.5],[1,0.5]];portConstraint=eastwest;rounded=0;" parent="sBGS1Uir1IaNzIVXZRek-0" vertex="1">
          <mxGeometry y="198" width="230" height="26" as="geometry" />
        </mxCell>
        <mxCell id="sBGS1Uir1IaNzIVXZRek-22" value="+ Fullname {get; set;}: string()" style="text;align=left;verticalAlign=top;spacingLeft=4;spacingRight=4;overflow=hidden;rotatable=0;points=[[0,0.5],[1,0.5]];portConstraint=eastwest;rounded=0;" parent="sBGS1Uir1IaNzIVXZRek-0" vertex="1">
          <mxGeometry y="224" width="230" height="26" as="geometry" />
        </mxCell>
        <mxCell id="sBGS1Uir1IaNzIVXZRek-24" value="+ Address {get; set;}: Address()" style="text;align=left;verticalAlign=top;spacingLeft=4;spacingRight=4;overflow=hidden;rotatable=0;points=[[0,0.5],[1,0.5]];portConstraint=eastwest;rounded=0;" parent="sBGS1Uir1IaNzIVXZRek-0" vertex="1">
          <mxGeometry y="250" width="230" height="26" as="geometry" />
        </mxCell>
        <mxCell id="Ajz1zNzVbMrPSSMoXpSr-4" value="+ Cart {get; set;}: Cart()" style="text;align=left;verticalAlign=top;spacingLeft=4;spacingRight=4;overflow=hidden;rotatable=0;points=[[0,0.5],[1,0.5]];portConstraint=eastwest;rounded=0;" parent="sBGS1Uir1IaNzIVXZRek-0" vertex="1">
          <mxGeometry y="276" width="230" height="26" as="geometry" />
        </mxCell>
        <mxCell id="Ajz1zNzVbMrPSSMoXpSr-6" value="+ Orders {get; set;}:List&lt;Order&gt;()" style="text;align=left;verticalAlign=top;spacingLeft=4;spacingRight=4;overflow=hidden;rotatable=0;points=[[0,0.5],[1,0.5]];portConstraint=eastwest;rounded=0;" parent="sBGS1Uir1IaNzIVXZRek-0" vertex="1">
          <mxGeometry y="302" width="230" height="26" as="geometry" />
        </mxCell>
        <mxCell id="Noa36CFvEDPg5Y3MZEn8-3" value="+ Discounts {get; set;}:List&lt;IDiscount&gt;()" style="text;align=left;verticalAlign=top;spacingLeft=4;spacingRight=4;overflow=hidden;rotatable=0;points=[[0,0.5],[1,0.5]];portConstraint=eastwest;rounded=0;" parent="sBGS1Uir1IaNzIVXZRek-0" vertex="1">
          <mxGeometry y="328" width="230" height="26" as="geometry" />
        </mxCell>
        <mxCell id="wTutFb9Adpz59W1rXgPP-15" value="+ IsPriority {get; set;}: bool" style="text;align=left;verticalAlign=top;spacingLeft=4;spacingRight=4;overflow=hidden;rotatable=0;points=[[0,0.5],[1,0.5]];portConstraint=eastwest;rounded=0;" parent="sBGS1Uir1IaNzIVXZRek-0" vertex="1">
          <mxGeometry y="354" width="230" height="26" as="geometry" />
        </mxCell>
        <mxCell id="sBGS1Uir1IaNzIVXZRek-34" value="" style="endArrow=blockThin;html=1;rounded=0;dashed=1;endFill=1;entryX=1.01;entryY=0.058;entryDx=0;entryDy=0;exitX=0;exitY=0.25;exitDx=0;exitDy=0;entryPerimeter=0;" parent="WIyWlLk6GJQsqaUBKTNV-1" target="sBGS1Uir1IaNzIVXZRek-0" edge="1">
          <mxGeometry width="50" height="50" relative="1" as="geometry">
            <mxPoint x="-520" y="222.5" as="sourcePoint" />
            <mxPoint x="503" y="301" as="targetPoint" />
          </mxGeometry>
        </mxCell>
        <mxCell id="E396M5tWe0iOBY8pmZY7-0" value="&lt;b&gt;Store&lt;/b&gt;" style="swimlane;fontStyle=0;childLayout=stackLayout;horizontal=1;startSize=30;horizontalStack=0;resizeParent=1;resizeParentMax=0;resizeLast=0;collapsible=1;marginBottom=0;whiteSpace=wrap;html=1;" parent="WIyWlLk6GJQsqaUBKTNV-1" vertex="1">
          <mxGeometry x="-560" y="40" width="260" height="150" as="geometry" />
        </mxCell>
        <mxCell id="E396M5tWe0iOBY8pmZY7-1" value="- _items: List&amp;lt;Item&amp;gt;" style="text;strokeColor=none;fillColor=none;align=left;verticalAlign=middle;spacingLeft=4;spacingRight=4;overflow=hidden;points=[[0,0.5],[1,0.5]];portConstraint=eastwest;rotatable=0;whiteSpace=wrap;html=1;" parent="E396M5tWe0iOBY8pmZY7-0" vertex="1">
          <mxGeometry y="30" width="260" height="30" as="geometry" />
        </mxCell>
        <mxCell id="E396M5tWe0iOBY8pmZY7-2" value="- _customers: List&amp;lt;Customer&amp;gt;" style="text;strokeColor=none;fillColor=none;align=left;verticalAlign=middle;spacingLeft=4;spacingRight=4;overflow=hidden;points=[[0,0.5],[1,0.5]];portConstraint=eastwest;rotatable=0;whiteSpace=wrap;html=1;" parent="E396M5tWe0iOBY8pmZY7-0" vertex="1">
          <mxGeometry y="60" width="260" height="30" as="geometry" />
        </mxCell>
        <mxCell id="E396M5tWe0iOBY8pmZY7-5" value="" style="line;html=1;strokeWidth=1;align=left;verticalAlign=middle;spacingTop=-1;spacingLeft=3;spacingRight=3;rotatable=0;labelPosition=right;points=[];portConstraint=eastwest;rounded=0;" parent="E396M5tWe0iOBY8pmZY7-0" vertex="1">
          <mxGeometry y="90" width="260" height="8" as="geometry" />
        </mxCell>
        <mxCell id="E396M5tWe0iOBY8pmZY7-4" value="+ Items {get; set;}:List&lt;Item&gt;()" style="text;align=left;verticalAlign=top;spacingLeft=4;spacingRight=4;overflow=hidden;rotatable=0;points=[[0,0.5],[1,0.5]];portConstraint=eastwest;rounded=0;" parent="E396M5tWe0iOBY8pmZY7-0" vertex="1">
          <mxGeometry y="98" width="260" height="26" as="geometry" />
        </mxCell>
        <mxCell id="E396M5tWe0iOBY8pmZY7-11" value="+ Customers {get; set;}:List&lt;Customer&gt;()" style="text;align=left;verticalAlign=top;spacingLeft=4;spacingRight=4;overflow=hidden;rotatable=0;points=[[0,0.5],[1,0.5]];portConstraint=eastwest;rounded=0;" parent="E396M5tWe0iOBY8pmZY7-0" vertex="1">
          <mxGeometry y="124" width="260" height="26" as="geometry" />
        </mxCell>
        <mxCell id="E396M5tWe0iOBY8pmZY7-13" value="" style="endArrow=none;html=1;endSize=12;startArrow=diamondThin;startSize=14;startFill=1;edgeStyle=orthogonalEdgeStyle;rounded=0;entryX=0.5;entryY=0;entryDx=0;entryDy=0;exitX=1;exitY=0.5;exitDx=0;exitDy=0;endFill=0;" parent="WIyWlLk6GJQsqaUBKTNV-1" source="E396M5tWe0iOBY8pmZY7-1" target="zkfFHV4jXpPFQw0GAbJ--0" edge="1">
          <mxGeometry relative="1" as="geometry">
            <mxPoint x="-300" y="120" as="sourcePoint" />
            <mxPoint x="-140" y="120" as="targetPoint" />
            <mxPoint as="offset" />
          </mxGeometry>
        </mxCell>
        <mxCell id="E396M5tWe0iOBY8pmZY7-14" value="1" style="edgeLabel;resizable=0;html=1;align=left;verticalAlign=top;fontSize=14;" parent="E396M5tWe0iOBY8pmZY7-13" connectable="0" vertex="1">
          <mxGeometry x="-1" relative="1" as="geometry">
            <mxPoint y="-30" as="offset" />
          </mxGeometry>
        </mxCell>
        <mxCell id="E396M5tWe0iOBY8pmZY7-15" value="n" style="edgeLabel;resizable=0;html=1;align=right;verticalAlign=top;fontSize=14;" parent="E396M5tWe0iOBY8pmZY7-13" connectable="0" vertex="1">
          <mxGeometry x="1" relative="1" as="geometry">
            <mxPoint x="20" y="-30" as="offset" />
          </mxGeometry>
        </mxCell>
        <mxCell id="E396M5tWe0iOBY8pmZY7-16" value="" style="endArrow=none;html=1;endSize=12;startArrow=diamondThin;startSize=14;startFill=1;edgeStyle=orthogonalEdgeStyle;rounded=0;entryX=0.5;entryY=0;entryDx=0;entryDy=0;exitX=0;exitY=0.5;exitDx=0;exitDy=0;endFill=0;" parent="WIyWlLk6GJQsqaUBKTNV-1" source="E396M5tWe0iOBY8pmZY7-2" target="sBGS1Uir1IaNzIVXZRek-0" edge="1">
          <mxGeometry relative="1" as="geometry">
            <mxPoint x="-290" y="130" as="sourcePoint" />
            <mxPoint x="-160" y="180" as="targetPoint" />
            <mxPoint as="offset" />
          </mxGeometry>
        </mxCell>
        <mxCell id="E396M5tWe0iOBY8pmZY7-17" value="1" style="edgeLabel;resizable=0;html=1;align=left;verticalAlign=top;fontSize=14;" parent="E396M5tWe0iOBY8pmZY7-16" connectable="0" vertex="1">
          <mxGeometry x="-1" relative="1" as="geometry">
            <mxPoint x="-20" y="-30" as="offset" />
          </mxGeometry>
        </mxCell>
        <mxCell id="E396M5tWe0iOBY8pmZY7-18" value="n" style="edgeLabel;resizable=0;html=1;align=right;verticalAlign=top;fontSize=14;" parent="E396M5tWe0iOBY8pmZY7-16" connectable="0" vertex="1">
          <mxGeometry x="1" relative="1" as="geometry">
            <mxPoint x="20" y="-30" as="offset" />
          </mxGeometry>
        </mxCell>
        <mxCell id="E396M5tWe0iOBY8pmZY7-26" value="&lt;span style=&quot;font-weight: normal;&quot;&gt;«enumeration»&lt;/span&gt;&lt;br&gt;Category" style="swimlane;fontStyle=1;align=center;verticalAlign=top;childLayout=stackLayout;horizontal=1;startSize=40;horizontalStack=0;resizeParent=1;resizeParentMax=0;resizeLast=0;collapsible=1;marginBottom=0;whiteSpace=wrap;html=1;" parent="WIyWlLk6GJQsqaUBKTNV-1" vertex="1">
          <mxGeometry x="310" y="560" width="160" height="222" as="geometry" />
        </mxCell>
        <mxCell id="E396M5tWe0iOBY8pmZY7-27" value="ElectricalAndLighting" style="text;strokeColor=none;fillColor=none;align=left;verticalAlign=top;spacingLeft=4;spacingRight=4;overflow=hidden;rotatable=0;points=[[0,0.5],[1,0.5]];portConstraint=eastwest;whiteSpace=wrap;html=1;" parent="E396M5tWe0iOBY8pmZY7-26" vertex="1">
          <mxGeometry y="40" width="160" height="26" as="geometry" />
        </mxCell>
        <mxCell id="E396M5tWe0iOBY8pmZY7-29" value="BrakeSystem" style="text;strokeColor=none;fillColor=none;align=left;verticalAlign=top;spacingLeft=4;spacingRight=4;overflow=hidden;rotatable=0;points=[[0,0.5],[1,0.5]];portConstraint=eastwest;whiteSpace=wrap;html=1;" parent="E396M5tWe0iOBY8pmZY7-26" vertex="1">
          <mxGeometry y="66" width="160" height="26" as="geometry" />
        </mxCell>
        <mxCell id="E396M5tWe0iOBY8pmZY7-30" value="Accessory" style="text;strokeColor=none;fillColor=none;align=left;verticalAlign=top;spacingLeft=4;spacingRight=4;overflow=hidden;rotatable=0;points=[[0,0.5],[1,0.5]];portConstraint=eastwest;whiteSpace=wrap;html=1;" parent="E396M5tWe0iOBY8pmZY7-26" vertex="1">
          <mxGeometry y="92" width="160" height="26" as="geometry" />
        </mxCell>
        <mxCell id="E396M5tWe0iOBY8pmZY7-31" value="Suspension" style="text;strokeColor=none;fillColor=none;align=left;verticalAlign=top;spacingLeft=4;spacingRight=4;overflow=hidden;rotatable=0;points=[[0,0.5],[1,0.5]];portConstraint=eastwest;whiteSpace=wrap;html=1;" parent="E396M5tWe0iOBY8pmZY7-26" vertex="1">
          <mxGeometry y="118" width="160" height="26" as="geometry" />
        </mxCell>
        <mxCell id="E396M5tWe0iOBY8pmZY7-32" value="Trim" style="text;strokeColor=none;fillColor=none;align=left;verticalAlign=top;spacingLeft=4;spacingRight=4;overflow=hidden;rotatable=0;points=[[0,0.5],[1,0.5]];portConstraint=eastwest;whiteSpace=wrap;html=1;" parent="E396M5tWe0iOBY8pmZY7-26" vertex="1">
          <mxGeometry y="144" width="160" height="26" as="geometry" />
        </mxCell>
        <mxCell id="E396M5tWe0iOBY8pmZY7-33" value="Tire" style="text;strokeColor=none;fillColor=none;align=left;verticalAlign=top;spacingLeft=4;spacingRight=4;overflow=hidden;rotatable=0;points=[[0,0.5],[1,0.5]];portConstraint=eastwest;whiteSpace=wrap;html=1;" parent="E396M5tWe0iOBY8pmZY7-26" vertex="1">
          <mxGeometry y="170" width="160" height="26" as="geometry" />
        </mxCell>
        <mxCell id="E396M5tWe0iOBY8pmZY7-34" value="EnginePart" style="text;strokeColor=none;fillColor=none;align=left;verticalAlign=top;spacingLeft=4;spacingRight=4;overflow=hidden;rotatable=0;points=[[0,0.5],[1,0.5]];portConstraint=eastwest;whiteSpace=wrap;html=1;" parent="E396M5tWe0iOBY8pmZY7-26" vertex="1">
          <mxGeometry y="196" width="160" height="26" as="geometry" />
        </mxCell>
        <mxCell id="E396M5tWe0iOBY8pmZY7-35" value="" style="endArrow=none;html=1;endSize=12;startArrow=diamondThin;startSize=14;startFill=1;edgeStyle=orthogonalEdgeStyle;rounded=0;entryX=-0.019;entryY=0.095;entryDx=0;entryDy=0;exitX=1;exitY=0.5;exitDx=0;exitDy=0;entryPerimeter=0;endFill=0;" parent="WIyWlLk6GJQsqaUBKTNV-1" source="E396M5tWe0iOBY8pmZY7-39" target="E396M5tWe0iOBY8pmZY7-26" edge="1">
          <mxGeometry relative="1" as="geometry">
            <mxPoint x="-40" y="150" as="sourcePoint" />
            <mxPoint x="90" y="200" as="targetPoint" />
            <mxPoint as="offset" />
            <Array as="points">
              <mxPoint x="250" y="687" />
              <mxPoint x="250" y="581" />
            </Array>
          </mxGeometry>
        </mxCell>
        <mxCell id="E396M5tWe0iOBY8pmZY7-36" value="1" style="edgeLabel;resizable=0;html=1;align=left;verticalAlign=top;fontSize=14;" parent="E396M5tWe0iOBY8pmZY7-35" connectable="0" vertex="1">
          <mxGeometry x="-1" relative="1" as="geometry">
            <mxPoint y="-30" as="offset" />
          </mxGeometry>
        </mxCell>
        <mxCell id="E396M5tWe0iOBY8pmZY7-37" value="1" style="edgeLabel;resizable=0;html=1;align=right;verticalAlign=top;fontSize=14;" parent="E396M5tWe0iOBY8pmZY7-35" connectable="0" vertex="1">
          <mxGeometry x="1" relative="1" as="geometry">
            <mxPoint x="-7" y="-41" as="offset" />
          </mxGeometry>
        </mxCell>
        <mxCell id="E396M5tWe0iOBY8pmZY7-40" value="Address" style="swimlane;fontStyle=1;align=center;verticalAlign=top;childLayout=stackLayout;horizontal=1;startSize=26;horizontalStack=0;resizeParent=1;resizeLast=0;collapsible=1;marginBottom=0;rounded=0;shadow=0;strokeWidth=1;" parent="WIyWlLk6GJQsqaUBKTNV-1" vertex="1">
          <mxGeometry x="-980" y="1030" width="200" height="458" as="geometry">
            <mxRectangle x="230" y="140" width="160" height="26" as="alternateBounds" />
          </mxGeometry>
        </mxCell>
        <mxCell id="E396M5tWe0iOBY8pmZY7-41" value="- _index: int" style="text;align=left;verticalAlign=top;spacingLeft=4;spacingRight=4;overflow=hidden;rotatable=0;points=[[0,0.5],[1,0.5]];portConstraint=eastwest;rounded=0;" parent="E396M5tWe0iOBY8pmZY7-40" vertex="1">
          <mxGeometry y="26" width="200" height="26" as="geometry" />
        </mxCell>
        <mxCell id="E396M5tWe0iOBY8pmZY7-42" value="- _country: string" style="text;align=left;verticalAlign=top;spacingLeft=4;spacingRight=4;overflow=hidden;rotatable=0;points=[[0,0.5],[1,0.5]];portConstraint=eastwest;rounded=0;shadow=0;html=0;" parent="E396M5tWe0iOBY8pmZY7-40" vertex="1">
          <mxGeometry y="52" width="200" height="26" as="geometry" />
        </mxCell>
        <mxCell id="E396M5tWe0iOBY8pmZY7-43" value="- _city: string" style="text;align=left;verticalAlign=top;spacingLeft=4;spacingRight=4;overflow=hidden;rotatable=0;points=[[0,0.5],[1,0.5]];portConstraint=eastwest;rounded=0;shadow=0;html=0;" parent="E396M5tWe0iOBY8pmZY7-40" vertex="1">
          <mxGeometry y="78" width="200" height="26" as="geometry" />
        </mxCell>
        <mxCell id="E396M5tWe0iOBY8pmZY7-48" value="- _street: string" style="text;align=left;verticalAlign=top;spacingLeft=4;spacingRight=4;overflow=hidden;rotatable=0;points=[[0,0.5],[1,0.5]];portConstraint=eastwest;rounded=0;shadow=0;html=0;" parent="E396M5tWe0iOBY8pmZY7-40" vertex="1">
          <mxGeometry y="104" width="200" height="26" as="geometry" />
        </mxCell>
        <mxCell id="E396M5tWe0iOBY8pmZY7-49" value="- _building: string" style="text;align=left;verticalAlign=top;spacingLeft=4;spacingRight=4;overflow=hidden;rotatable=0;points=[[0,0.5],[1,0.5]];portConstraint=eastwest;rounded=0;shadow=0;html=0;" parent="E396M5tWe0iOBY8pmZY7-40" vertex="1">
          <mxGeometry y="130" width="200" height="26" as="geometry" />
        </mxCell>
        <mxCell id="E396M5tWe0iOBY8pmZY7-50" value="- _apartment: string" style="text;align=left;verticalAlign=top;spacingLeft=4;spacingRight=4;overflow=hidden;rotatable=0;points=[[0,0.5],[1,0.5]];portConstraint=eastwest;rounded=0;shadow=0;html=0;" parent="E396M5tWe0iOBY8pmZY7-40" vertex="1">
          <mxGeometry y="156" width="200" height="26" as="geometry" />
        </mxCell>
        <mxCell id="E396M5tWe0iOBY8pmZY7-44" value="" style="line;html=1;strokeWidth=1;align=left;verticalAlign=middle;spacingTop=-1;spacingLeft=3;spacingRight=3;rotatable=0;labelPosition=right;points=[];portConstraint=eastwest;rounded=0;" parent="E396M5tWe0iOBY8pmZY7-40" vertex="1">
          <mxGeometry y="182" width="200" height="8" as="geometry" />
        </mxCell>
        <mxCell id="E396M5tWe0iOBY8pmZY7-46" value="+ Index {get; set;}: int" style="text;align=left;verticalAlign=top;spacingLeft=4;spacingRight=4;overflow=hidden;rotatable=0;points=[[0,0.5],[1,0.5]];portConstraint=eastwest;rounded=0;" parent="E396M5tWe0iOBY8pmZY7-40" vertex="1">
          <mxGeometry y="190" width="200" height="26" as="geometry" />
        </mxCell>
        <mxCell id="E396M5tWe0iOBY8pmZY7-47" value="+ Country {get; set;}: string" style="text;align=left;verticalAlign=top;spacingLeft=4;spacingRight=4;overflow=hidden;rotatable=0;points=[[0,0.5],[1,0.5]];portConstraint=eastwest;rounded=0;" parent="E396M5tWe0iOBY8pmZY7-40" vertex="1">
          <mxGeometry y="216" width="200" height="26" as="geometry" />
        </mxCell>
        <mxCell id="E396M5tWe0iOBY8pmZY7-51" value="+ City {get; set;}: string" style="text;align=left;verticalAlign=top;spacingLeft=4;spacingRight=4;overflow=hidden;rotatable=0;points=[[0,0.5],[1,0.5]];portConstraint=eastwest;rounded=0;" parent="E396M5tWe0iOBY8pmZY7-40" vertex="1">
          <mxGeometry y="242" width="200" height="26" as="geometry" />
        </mxCell>
        <mxCell id="E396M5tWe0iOBY8pmZY7-52" value="+ Street {get; set;}: string" style="text;align=left;verticalAlign=top;spacingLeft=4;spacingRight=4;overflow=hidden;rotatable=0;points=[[0,0.5],[1,0.5]];portConstraint=eastwest;rounded=0;" parent="E396M5tWe0iOBY8pmZY7-40" vertex="1">
          <mxGeometry y="268" width="200" height="26" as="geometry" />
        </mxCell>
        <mxCell id="E396M5tWe0iOBY8pmZY7-53" value="+ Building {get; set;}: string" style="text;align=left;verticalAlign=top;spacingLeft=4;spacingRight=4;overflow=hidden;rotatable=0;points=[[0,0.5],[1,0.5]];portConstraint=eastwest;rounded=0;" parent="E396M5tWe0iOBY8pmZY7-40" vertex="1">
          <mxGeometry y="294" width="200" height="26" as="geometry" />
        </mxCell>
        <mxCell id="Ajz1zNzVbMrPSSMoXpSr-0" value="+ Apartment {get; set;}: string" style="text;align=left;verticalAlign=top;spacingLeft=4;spacingRight=4;overflow=hidden;rotatable=0;points=[[0,0.5],[1,0.5]];portConstraint=eastwest;rounded=0;" parent="E396M5tWe0iOBY8pmZY7-40" vertex="1">
          <mxGeometry y="320" width="200" height="26" as="geometry" />
        </mxCell>
        <mxCell id="s0CAFuMkxuU7vEHBp4di-0" value="&lt;events&gt;&#xa;" style="text;align=left;verticalAlign=top;spacingLeft=4;spacingRight=4;overflow=hidden;rotatable=0;points=[[0,0.5],[1,0.5]];portConstraint=eastwest;rounded=0;" vertex="1" parent="E396M5tWe0iOBY8pmZY7-40">
          <mxGeometry y="346" width="200" height="26" as="geometry" />
        </mxCell>
        <mxCell id="s0CAFuMkxuU7vEHBp4di-1" value="+ AddressChanged: EventHandler" style="text;align=left;verticalAlign=top;spacingLeft=4;spacingRight=4;overflow=hidden;rotatable=0;points=[[0,0.5],[1,0.5]];portConstraint=eastwest;rounded=0;" vertex="1" parent="E396M5tWe0iOBY8pmZY7-40">
          <mxGeometry y="372" width="200" height="26" as="geometry" />
        </mxCell>
        <mxCell id="Noa36CFvEDPg5Y3MZEn8-34" value="" style="line;html=1;strokeWidth=1;align=left;verticalAlign=middle;spacingTop=-1;spacingLeft=3;spacingRight=3;rotatable=0;labelPosition=right;points=[];portConstraint=eastwest;rounded=0;" parent="E396M5tWe0iOBY8pmZY7-40" vertex="1">
          <mxGeometry y="398" width="200" height="8" as="geometry" />
        </mxCell>
        <mxCell id="Ajz1zNzVbMrPSSMoXpSr-1" value="+ ToString: string" style="text;align=left;verticalAlign=top;spacingLeft=4;spacingRight=4;overflow=hidden;rotatable=0;points=[[0,0.5],[1,0.5]];portConstraint=eastwest;rounded=0;" parent="E396M5tWe0iOBY8pmZY7-40" vertex="1">
          <mxGeometry y="406" width="200" height="26" as="geometry" />
        </mxCell>
        <mxCell id="CNYj2VtHb43jAfitieCE-14" value="+ Equals(object other): bool" style="text;align=left;verticalAlign=top;spacingLeft=4;spacingRight=4;overflow=hidden;rotatable=0;points=[[0,0.5],[1,0.5]];portConstraint=eastwest;rounded=0;" parent="E396M5tWe0iOBY8pmZY7-40" vertex="1">
          <mxGeometry y="432" width="200" height="26" as="geometry" />
        </mxCell>
        <mxCell id="E396M5tWe0iOBY8pmZY7-55" value="" style="endArrow=none;html=1;endSize=12;startArrow=diamondThin;startSize=14;startFill=1;edgeStyle=orthogonalEdgeStyle;rounded=0;entryX=0.5;entryY=0;entryDx=0;entryDy=0;endFill=0;exitX=0;exitY=0.5;exitDx=0;exitDy=0;" parent="WIyWlLk6GJQsqaUBKTNV-1" source="sBGS1Uir1IaNzIVXZRek-20" target="E396M5tWe0iOBY8pmZY7-40" edge="1">
          <mxGeometry relative="1" as="geometry">
            <mxPoint x="-890" y="270" as="sourcePoint" />
            <mxPoint x="-1050" y="340" as="targetPoint" />
            <mxPoint as="offset" />
            <Array as="points">
              <mxPoint x="-1220" y="291" />
              <mxPoint x="-1220" y="1000" />
              <mxPoint x="-880" y="1000" />
            </Array>
          </mxGeometry>
        </mxCell>
        <mxCell id="E396M5tWe0iOBY8pmZY7-56" value="1" style="edgeLabel;resizable=0;html=1;align=left;verticalAlign=top;fontSize=14;" parent="E396M5tWe0iOBY8pmZY7-55" connectable="0" vertex="1">
          <mxGeometry x="-1" relative="1" as="geometry">
            <mxPoint x="-20" y="-30" as="offset" />
          </mxGeometry>
        </mxCell>
        <mxCell id="E396M5tWe0iOBY8pmZY7-57" value="1" style="edgeLabel;resizable=0;html=1;align=right;verticalAlign=top;fontSize=14;" parent="E396M5tWe0iOBY8pmZY7-55" connectable="0" vertex="1">
          <mxGeometry x="1" relative="1" as="geometry">
            <mxPoint x="-10" y="-30" as="offset" />
          </mxGeometry>
        </mxCell>
        <mxCell id="Ajz1zNzVbMrPSSMoXpSr-7" value="Cart" style="swimlane;fontStyle=1;align=center;verticalAlign=top;childLayout=stackLayout;horizontal=1;startSize=26;horizontalStack=0;resizeParent=1;resizeParentMax=0;resizeLast=0;collapsible=1;marginBottom=0;whiteSpace=wrap;html=1;" parent="WIyWlLk6GJQsqaUBKTNV-1" vertex="1">
          <mxGeometry x="-450" y="430" width="160" height="150" as="geometry" />
        </mxCell>
        <mxCell id="Ajz1zNzVbMrPSSMoXpSr-11" value="- _items: List&amp;lt;Item&amp;gt;" style="text;strokeColor=none;fillColor=none;align=left;verticalAlign=middle;spacingLeft=4;spacingRight=4;overflow=hidden;points=[[0,0.5],[1,0.5]];portConstraint=eastwest;rotatable=0;whiteSpace=wrap;html=1;" parent="Ajz1zNzVbMrPSSMoXpSr-7" vertex="1">
          <mxGeometry y="26" width="160" height="30" as="geometry" />
        </mxCell>
        <mxCell id="Ajz1zNzVbMrPSSMoXpSr-9" value="" style="line;strokeWidth=1;fillColor=none;align=left;verticalAlign=middle;spacingTop=-1;spacingLeft=3;spacingRight=3;rotatable=0;labelPosition=right;points=[];portConstraint=eastwest;strokeColor=inherit;" parent="Ajz1zNzVbMrPSSMoXpSr-7" vertex="1">
          <mxGeometry y="56" width="160" height="8" as="geometry" />
        </mxCell>
        <mxCell id="Ajz1zNzVbMrPSSMoXpSr-12" value="+ Items {get; set;}:List&lt;Item&gt;()" style="text;align=left;verticalAlign=top;spacingLeft=4;spacingRight=4;overflow=hidden;rotatable=0;points=[[0,0.5],[1,0.5]];portConstraint=eastwest;rounded=0;" parent="Ajz1zNzVbMrPSSMoXpSr-7" vertex="1">
          <mxGeometry y="64" width="160" height="26" as="geometry" />
        </mxCell>
        <mxCell id="Ajz1zNzVbMrPSSMoXpSr-10" value="+ Amount {get;}: double" style="text;strokeColor=none;fillColor=none;align=left;verticalAlign=top;spacingLeft=4;spacingRight=4;overflow=hidden;rotatable=0;points=[[0,0.5],[1,0.5]];portConstraint=eastwest;whiteSpace=wrap;html=1;" parent="Ajz1zNzVbMrPSSMoXpSr-7" vertex="1">
          <mxGeometry y="90" width="160" height="26" as="geometry" />
        </mxCell>
        <mxCell id="CNYj2VtHb43jAfitieCE-5" value="" style="line;strokeWidth=1;fillColor=none;align=left;verticalAlign=middle;spacingTop=-1;spacingLeft=3;spacingRight=3;rotatable=0;labelPosition=right;points=[];portConstraint=eastwest;strokeColor=inherit;" parent="Ajz1zNzVbMrPSSMoXpSr-7" vertex="1">
          <mxGeometry y="116" width="160" height="8" as="geometry" />
        </mxCell>
        <mxCell id="CNYj2VtHb43jAfitieCE-4" value="+ Clone(): Cart" style="text;strokeColor=none;fillColor=none;align=left;verticalAlign=top;spacingLeft=4;spacingRight=4;overflow=hidden;rotatable=0;points=[[0,0.5],[1,0.5]];portConstraint=eastwest;whiteSpace=wrap;html=1;" parent="Ajz1zNzVbMrPSSMoXpSr-7" vertex="1">
          <mxGeometry y="124" width="160" height="26" as="geometry" />
        </mxCell>
        <mxCell id="Ajz1zNzVbMrPSSMoXpSr-14" value="" style="endArrow=none;html=1;endSize=12;startArrow=diamondThin;startSize=14;startFill=1;edgeStyle=orthogonalEdgeStyle;rounded=0;entryX=-0.01;entryY=0.082;entryDx=0;entryDy=0;exitX=1;exitY=0.5;exitDx=0;exitDy=0;entryPerimeter=0;endFill=0;" parent="WIyWlLk6GJQsqaUBKTNV-1" source="Ajz1zNzVbMrPSSMoXpSr-2" target="Ajz1zNzVbMrPSSMoXpSr-7" edge="1">
          <mxGeometry relative="1" as="geometry">
            <mxPoint x="-731" y="590" as="sourcePoint" />
            <mxPoint x="-990" y="603" as="targetPoint" />
            <mxPoint as="offset" />
            <Array as="points">
              <mxPoint x="-580" y="317" />
              <mxPoint x="-580" y="440" />
            </Array>
          </mxGeometry>
        </mxCell>
        <mxCell id="Ajz1zNzVbMrPSSMoXpSr-15" value="1" style="edgeLabel;resizable=0;html=1;align=left;verticalAlign=top;fontSize=14;" parent="Ajz1zNzVbMrPSSMoXpSr-14" connectable="0" vertex="1">
          <mxGeometry x="-1" relative="1" as="geometry">
            <mxPoint x="10" y="-30" as="offset" />
          </mxGeometry>
        </mxCell>
        <mxCell id="Ajz1zNzVbMrPSSMoXpSr-16" value="1" style="edgeLabel;resizable=0;html=1;align=right;verticalAlign=top;fontSize=14;" parent="Ajz1zNzVbMrPSSMoXpSr-14" connectable="0" vertex="1">
          <mxGeometry x="1" relative="1" as="geometry">
            <mxPoint x="-9" y="-30" as="offset" />
          </mxGeometry>
        </mxCell>
        <mxCell id="Ajz1zNzVbMrPSSMoXpSr-17" value="Order" style="swimlane;fontStyle=1;align=center;verticalAlign=top;childLayout=stackLayout;horizontal=1;startSize=26;horizontalStack=0;resizeParent=1;resizeParentMax=0;resizeLast=0;collapsible=1;marginBottom=0;whiteSpace=wrap;html=1;" parent="WIyWlLk6GJQsqaUBKTNV-1" vertex="1">
          <mxGeometry x="-330" y="838" width="220" height="436" as="geometry" />
        </mxCell>
        <mxCell id="Ajz1zNzVbMrPSSMoXpSr-30" value="- _Id: int {readOnly}" style="text;align=left;verticalAlign=top;spacingLeft=4;spacingRight=4;overflow=hidden;rotatable=0;points=[[0,0.5],[1,0.5]];portConstraint=eastwest;rounded=0;fontStyle=0" parent="Ajz1zNzVbMrPSSMoXpSr-17" vertex="1">
          <mxGeometry y="26" width="220" height="26" as="geometry" />
        </mxCell>
        <mxCell id="Ajz1zNzVbMrPSSMoXpSr-18" value="- _date:DateTime" style="text;strokeColor=none;fillColor=none;align=left;verticalAlign=top;spacingLeft=4;spacingRight=4;overflow=hidden;rotatable=0;points=[[0,0.5],[1,0.5]];portConstraint=eastwest;whiteSpace=wrap;html=1;" parent="Ajz1zNzVbMrPSSMoXpSr-17" vertex="1">
          <mxGeometry y="52" width="220" height="26" as="geometry" />
        </mxCell>
        <mxCell id="Ajz1zNzVbMrPSSMoXpSr-32" value="- _address:Address" style="text;align=left;verticalAlign=top;spacingLeft=4;spacingRight=4;overflow=hidden;rotatable=0;points=[[0,0.5],[1,0.5]];portConstraint=eastwest;rounded=0;shadow=0;html=0;" parent="Ajz1zNzVbMrPSSMoXpSr-17" vertex="1">
          <mxGeometry y="78" width="220" height="26" as="geometry" />
        </mxCell>
        <mxCell id="Ajz1zNzVbMrPSSMoXpSr-40" value="- _items: List&amp;lt;Item&amp;gt;" style="text;strokeColor=none;fillColor=none;align=left;verticalAlign=middle;spacingLeft=4;spacingRight=4;overflow=hidden;points=[[0,0.5],[1,0.5]];portConstraint=eastwest;rotatable=0;whiteSpace=wrap;html=1;" parent="Ajz1zNzVbMrPSSMoXpSr-17" vertex="1">
          <mxGeometry y="104" width="220" height="30" as="geometry" />
        </mxCell>
        <mxCell id="Ajz1zNzVbMrPSSMoXpSr-39" value="- _status:OrderStatus" style="text;align=left;verticalAlign=top;spacingLeft=4;spacingRight=4;overflow=hidden;rotatable=0;points=[[0,0.5],[1,0.5]];portConstraint=eastwest;rounded=0;shadow=0;html=0;" parent="Ajz1zNzVbMrPSSMoXpSr-17" vertex="1">
          <mxGeometry y="134" width="220" height="26" as="geometry" />
        </mxCell>
        <mxCell id="Ajz1zNzVbMrPSSMoXpSr-19" value="" style="line;strokeWidth=1;fillColor=none;align=left;verticalAlign=middle;spacingTop=-1;spacingLeft=3;spacingRight=3;rotatable=0;labelPosition=right;points=[];portConstraint=eastwest;strokeColor=inherit;" parent="Ajz1zNzVbMrPSSMoXpSr-17" vertex="1">
          <mxGeometry y="160" width="220" height="8" as="geometry" />
        </mxCell>
        <mxCell id="Ajz1zNzVbMrPSSMoXpSr-31" value="+ Id {get;}: int()" style="text;align=left;verticalAlign=top;spacingLeft=4;spacingRight=4;overflow=hidden;rotatable=0;points=[[0,0.5],[1,0.5]];portConstraint=eastwest;rounded=0;" parent="Ajz1zNzVbMrPSSMoXpSr-17" vertex="1">
          <mxGeometry y="168" width="220" height="26" as="geometry" />
        </mxCell>
        <mxCell id="Ajz1zNzVbMrPSSMoXpSr-34" value="+ Date {get; set;}: DateTime()" style="text;align=left;verticalAlign=top;spacingLeft=4;spacingRight=4;overflow=hidden;rotatable=0;points=[[0,0.5],[1,0.5]];portConstraint=eastwest;rounded=0;" parent="Ajz1zNzVbMrPSSMoXpSr-17" vertex="1">
          <mxGeometry y="194" width="220" height="26" as="geometry" />
        </mxCell>
        <mxCell id="Ajz1zNzVbMrPSSMoXpSr-33" value="+ Address {get; set;}: Address()" style="text;align=left;verticalAlign=top;spacingLeft=4;spacingRight=4;overflow=hidden;rotatable=0;points=[[0,0.5],[1,0.5]];portConstraint=eastwest;rounded=0;" parent="Ajz1zNzVbMrPSSMoXpSr-17" vertex="1">
          <mxGeometry y="220" width="220" height="26" as="geometry" />
        </mxCell>
        <mxCell id="Ajz1zNzVbMrPSSMoXpSr-36" value="+ Status {get; set;}: OrderStatus()" style="text;align=left;verticalAlign=top;spacingLeft=4;spacingRight=4;overflow=hidden;rotatable=0;points=[[0,0.5],[1,0.5]];portConstraint=eastwest;rounded=0;shadow=0;html=0;" parent="Ajz1zNzVbMrPSSMoXpSr-17" vertex="1">
          <mxGeometry y="246" width="220" height="26" as="geometry" />
        </mxCell>
        <mxCell id="Ajz1zNzVbMrPSSMoXpSr-41" value="+ Items {get; set;}:List&lt;Item&gt;()" style="text;align=left;verticalAlign=top;spacingLeft=4;spacingRight=4;overflow=hidden;rotatable=0;points=[[0,0.5],[1,0.5]];portConstraint=eastwest;rounded=0;" parent="Ajz1zNzVbMrPSSMoXpSr-17" vertex="1">
          <mxGeometry y="272" width="220" height="26" as="geometry" />
        </mxCell>
        <mxCell id="Noa36CFvEDPg5Y3MZEn8-1" value="+ DiscountAmount {get; set;}: double" style="text;strokeColor=none;fillColor=none;align=left;verticalAlign=top;spacingLeft=4;spacingRight=4;overflow=hidden;rotatable=0;points=[[0,0.5],[1,0.5]];portConstraint=eastwest;whiteSpace=wrap;html=1;" parent="Ajz1zNzVbMrPSSMoXpSr-17" vertex="1">
          <mxGeometry y="298" width="220" height="26" as="geometry" />
        </mxCell>
        <mxCell id="Ajz1zNzVbMrPSSMoXpSr-42" value="+ Amount {get;}: double" style="text;strokeColor=none;fillColor=none;align=left;verticalAlign=top;spacingLeft=4;spacingRight=4;overflow=hidden;rotatable=0;points=[[0,0.5],[1,0.5]];portConstraint=eastwest;whiteSpace=wrap;html=1;" parent="Ajz1zNzVbMrPSSMoXpSr-17" vertex="1">
          <mxGeometry y="324" width="220" height="26" as="geometry" />
        </mxCell>
        <mxCell id="Noa36CFvEDPg5Y3MZEn8-0" value="+ Total {get;}: double" style="text;strokeColor=none;fillColor=none;align=left;verticalAlign=top;spacingLeft=4;spacingRight=4;overflow=hidden;rotatable=0;points=[[0,0.5],[1,0.5]];portConstraint=eastwest;whiteSpace=wrap;html=1;" parent="Ajz1zNzVbMrPSSMoXpSr-17" vertex="1">
          <mxGeometry y="350" width="220" height="26" as="geometry" />
        </mxCell>
        <mxCell id="CNYj2VtHb43jAfitieCE-9" value="" style="line;strokeWidth=1;fillColor=none;align=left;verticalAlign=middle;spacingTop=-1;spacingLeft=3;spacingRight=3;rotatable=0;labelPosition=right;points=[];portConstraint=eastwest;strokeColor=inherit;" parent="Ajz1zNzVbMrPSSMoXpSr-17" vertex="1">
          <mxGeometry y="376" width="220" height="8" as="geometry" />
        </mxCell>
        <mxCell id="CNYj2VtHb43jAfitieCE-10" value="+ Clone(): Order" style="text;strokeColor=none;fillColor=none;align=left;verticalAlign=top;spacingLeft=4;spacingRight=4;overflow=hidden;rotatable=0;points=[[0,0.5],[1,0.5]];portConstraint=eastwest;whiteSpace=wrap;html=1;" parent="Ajz1zNzVbMrPSSMoXpSr-17" vertex="1">
          <mxGeometry y="384" width="220" height="26" as="geometry" />
        </mxCell>
        <mxCell id="CNYj2VtHb43jAfitieCE-16" value="+ Equals(object other): bool" style="text;strokeColor=none;fillColor=none;align=left;verticalAlign=top;spacingLeft=4;spacingRight=4;overflow=hidden;rotatable=0;points=[[0,0.5],[1,0.5]];portConstraint=eastwest;whiteSpace=wrap;html=1;" parent="Ajz1zNzVbMrPSSMoXpSr-17" vertex="1">
          <mxGeometry y="410" width="220" height="26" as="geometry" />
        </mxCell>
        <mxCell id="Ajz1zNzVbMrPSSMoXpSr-21" value="&lt;span style=&quot;font-weight: normal;&quot;&gt;«enumeration»&lt;/span&gt;&lt;br&gt;OrderStatus" style="swimlane;fontStyle=1;align=center;verticalAlign=top;childLayout=stackLayout;horizontal=1;startSize=40;horizontalStack=0;resizeParent=1;resizeParentMax=0;resizeLast=0;collapsible=1;marginBottom=0;whiteSpace=wrap;html=1;" parent="WIyWlLk6GJQsqaUBKTNV-1" vertex="1">
          <mxGeometry x="50" y="1050" width="160" height="222" as="geometry" />
        </mxCell>
        <mxCell id="Ajz1zNzVbMrPSSMoXpSr-22" value="New" style="text;strokeColor=none;fillColor=none;align=left;verticalAlign=top;spacingLeft=4;spacingRight=4;overflow=hidden;rotatable=0;points=[[0,0.5],[1,0.5]];portConstraint=eastwest;whiteSpace=wrap;html=1;" parent="Ajz1zNzVbMrPSSMoXpSr-21" vertex="1">
          <mxGeometry y="40" width="160" height="26" as="geometry" />
        </mxCell>
        <mxCell id="Ajz1zNzVbMrPSSMoXpSr-23" value="Proccesing" style="text;strokeColor=none;fillColor=none;align=left;verticalAlign=top;spacingLeft=4;spacingRight=4;overflow=hidden;rotatable=0;points=[[0,0.5],[1,0.5]];portConstraint=eastwest;whiteSpace=wrap;html=1;" parent="Ajz1zNzVbMrPSSMoXpSr-21" vertex="1">
          <mxGeometry y="66" width="160" height="26" as="geometry" />
        </mxCell>
        <mxCell id="Ajz1zNzVbMrPSSMoXpSr-24" value="Assembly" style="text;strokeColor=none;fillColor=none;align=left;verticalAlign=top;spacingLeft=4;spacingRight=4;overflow=hidden;rotatable=0;points=[[0,0.5],[1,0.5]];portConstraint=eastwest;whiteSpace=wrap;html=1;" parent="Ajz1zNzVbMrPSSMoXpSr-21" vertex="1">
          <mxGeometry y="92" width="160" height="26" as="geometry" />
        </mxCell>
        <mxCell id="Ajz1zNzVbMrPSSMoXpSr-25" value="Sent" style="text;strokeColor=none;fillColor=none;align=left;verticalAlign=top;spacingLeft=4;spacingRight=4;overflow=hidden;rotatable=0;points=[[0,0.5],[1,0.5]];portConstraint=eastwest;whiteSpace=wrap;html=1;" parent="Ajz1zNzVbMrPSSMoXpSr-21" vertex="1">
          <mxGeometry y="118" width="160" height="26" as="geometry" />
        </mxCell>
        <mxCell id="Ajz1zNzVbMrPSSMoXpSr-26" value="Delivered" style="text;strokeColor=none;fillColor=none;align=left;verticalAlign=top;spacingLeft=4;spacingRight=4;overflow=hidden;rotatable=0;points=[[0,0.5],[1,0.5]];portConstraint=eastwest;whiteSpace=wrap;html=1;" parent="Ajz1zNzVbMrPSSMoXpSr-21" vertex="1">
          <mxGeometry y="144" width="160" height="26" as="geometry" />
        </mxCell>
        <mxCell id="Ajz1zNzVbMrPSSMoXpSr-27" value="Returned" style="text;strokeColor=none;fillColor=none;align=left;verticalAlign=top;spacingLeft=4;spacingRight=4;overflow=hidden;rotatable=0;points=[[0,0.5],[1,0.5]];portConstraint=eastwest;whiteSpace=wrap;html=1;" parent="Ajz1zNzVbMrPSSMoXpSr-21" vertex="1">
          <mxGeometry y="170" width="160" height="26" as="geometry" />
        </mxCell>
        <mxCell id="Ajz1zNzVbMrPSSMoXpSr-28" value="Abandoned" style="text;strokeColor=none;fillColor=none;align=left;verticalAlign=top;spacingLeft=4;spacingRight=4;overflow=hidden;rotatable=0;points=[[0,0.5],[1,0.5]];portConstraint=eastwest;whiteSpace=wrap;html=1;" parent="Ajz1zNzVbMrPSSMoXpSr-21" vertex="1">
          <mxGeometry y="196" width="160" height="26" as="geometry" />
        </mxCell>
        <mxCell id="Ajz1zNzVbMrPSSMoXpSr-44" value="" style="endArrow=none;html=1;endSize=12;startArrow=diamondThin;startSize=14;startFill=0;edgeStyle=orthogonalEdgeStyle;rounded=0;exitX=1;exitY=0.5;exitDx=0;exitDy=0;entryX=-0.005;entryY=0.067;entryDx=0;entryDy=0;entryPerimeter=0;endFill=0;" parent="WIyWlLk6GJQsqaUBKTNV-1" source="Ajz1zNzVbMrPSSMoXpSr-40" target="zkfFHV4jXpPFQw0GAbJ--0" edge="1">
          <mxGeometry relative="1" as="geometry">
            <mxPoint x="-150" y="750" as="sourcePoint" />
            <mxPoint x="260" y="790" as="targetPoint" />
            <mxPoint as="offset" />
          </mxGeometry>
        </mxCell>
        <mxCell id="Ajz1zNzVbMrPSSMoXpSr-45" value="1" style="edgeLabel;resizable=0;html=1;align=left;verticalAlign=top;fontSize=14;" parent="Ajz1zNzVbMrPSSMoXpSr-44" connectable="0" vertex="1">
          <mxGeometry x="-1" relative="1" as="geometry">
            <mxPoint y="-30" as="offset" />
          </mxGeometry>
        </mxCell>
        <mxCell id="Ajz1zNzVbMrPSSMoXpSr-46" value="n" style="edgeLabel;resizable=0;html=1;align=right;verticalAlign=top;fontSize=14;" parent="Ajz1zNzVbMrPSSMoXpSr-44" connectable="0" vertex="1">
          <mxGeometry x="1" relative="1" as="geometry">
            <mxPoint x="-9" as="offset" />
          </mxGeometry>
        </mxCell>
        <mxCell id="Ajz1zNzVbMrPSSMoXpSr-47" value="" style="endArrow=none;html=1;endSize=12;startArrow=diamondThin;startSize=14;startFill=1;edgeStyle=orthogonalEdgeStyle;rounded=0;entryX=0.5;entryY=0;entryDx=0;entryDy=0;exitX=1;exitY=0.5;exitDx=0;exitDy=0;endFill=0;" parent="WIyWlLk6GJQsqaUBKTNV-1" source="Ajz1zNzVbMrPSSMoXpSr-39" target="Ajz1zNzVbMrPSSMoXpSr-21" edge="1">
          <mxGeometry relative="1" as="geometry">
            <mxPoint x="-200" y="670" as="sourcePoint" />
            <mxPoint x="-50" y="900" as="targetPoint" />
            <mxPoint as="offset" />
            <Array as="points">
              <mxPoint x="130" y="985" />
            </Array>
          </mxGeometry>
        </mxCell>
        <mxCell id="Ajz1zNzVbMrPSSMoXpSr-48" value="1" style="edgeLabel;resizable=0;html=1;align=left;verticalAlign=top;fontSize=14;" parent="Ajz1zNzVbMrPSSMoXpSr-47" connectable="0" vertex="1">
          <mxGeometry x="-1" relative="1" as="geometry">
            <mxPoint y="-30" as="offset" />
          </mxGeometry>
        </mxCell>
        <mxCell id="Ajz1zNzVbMrPSSMoXpSr-49" value="1" style="edgeLabel;resizable=0;html=1;align=right;verticalAlign=top;fontSize=14;" parent="Ajz1zNzVbMrPSSMoXpSr-47" connectable="0" vertex="1">
          <mxGeometry x="1" relative="1" as="geometry">
            <mxPoint x="-7" y="-41" as="offset" />
          </mxGeometry>
        </mxCell>
        <mxCell id="Ajz1zNzVbMrPSSMoXpSr-51" value="" style="endArrow=none;html=1;endSize=12;startArrow=diamondThin;startSize=14;startFill=0;edgeStyle=orthogonalEdgeStyle;rounded=0;exitX=1;exitY=0.5;exitDx=0;exitDy=0;entryX=-0.008;entryY=0.019;entryDx=0;entryDy=0;entryPerimeter=0;endFill=0;" parent="WIyWlLk6GJQsqaUBKTNV-1" source="Ajz1zNzVbMrPSSMoXpSr-11" target="zkfFHV4jXpPFQw0GAbJ--0" edge="1">
          <mxGeometry relative="1" as="geometry">
            <mxPoint x="-250" y="714" as="sourcePoint" />
            <mxPoint x="29" y="460" as="targetPoint" />
            <mxPoint as="offset" />
          </mxGeometry>
        </mxCell>
        <mxCell id="Ajz1zNzVbMrPSSMoXpSr-52" value="1" style="edgeLabel;resizable=0;html=1;align=left;verticalAlign=top;fontSize=14;" parent="Ajz1zNzVbMrPSSMoXpSr-51" connectable="0" vertex="1">
          <mxGeometry x="-1" relative="1" as="geometry">
            <mxPoint y="-30" as="offset" />
          </mxGeometry>
        </mxCell>
        <mxCell id="Ajz1zNzVbMrPSSMoXpSr-53" value="n" style="edgeLabel;resizable=0;html=1;align=right;verticalAlign=top;fontSize=14;" parent="Ajz1zNzVbMrPSSMoXpSr-51" connectable="0" vertex="1">
          <mxGeometry x="1" relative="1" as="geometry">
            <mxPoint x="-8" y="-30" as="offset" />
          </mxGeometry>
        </mxCell>
        <mxCell id="wTutFb9Adpz59W1rXgPP-0" value="Priority Order" style="swimlane;fontStyle=1;align=center;verticalAlign=top;childLayout=stackLayout;horizontal=1;startSize=26;horizontalStack=0;resizeParent=1;resizeParentMax=0;resizeLast=0;collapsible=1;marginBottom=0;whiteSpace=wrap;html=1;" parent="WIyWlLk6GJQsqaUBKTNV-1" vertex="1">
          <mxGeometry x="-640" y="1017" width="270" height="138" as="geometry" />
        </mxCell>
        <mxCell id="wTutFb9Adpz59W1rXgPP-2" value="- _desiredDeliveryDate:DateTime" style="text;strokeColor=none;fillColor=none;align=left;verticalAlign=top;spacingLeft=4;spacingRight=4;overflow=hidden;rotatable=0;points=[[0,0.5],[1,0.5]];portConstraint=eastwest;whiteSpace=wrap;html=1;" parent="wTutFb9Adpz59W1rXgPP-0" vertex="1">
          <mxGeometry y="26" width="270" height="26" as="geometry" />
        </mxCell>
        <mxCell id="wTutFb9Adpz59W1rXgPP-3" value="- _desiredDeliveryTIme:string" style="text;align=left;verticalAlign=top;spacingLeft=4;spacingRight=4;overflow=hidden;rotatable=0;points=[[0,0.5],[1,0.5]];portConstraint=eastwest;rounded=0;shadow=0;html=0;" parent="wTutFb9Adpz59W1rXgPP-0" vertex="1">
          <mxGeometry y="52" width="270" height="26" as="geometry" />
        </mxCell>
        <mxCell id="wTutFb9Adpz59W1rXgPP-6" value="" style="line;strokeWidth=1;fillColor=none;align=left;verticalAlign=middle;spacingTop=-1;spacingLeft=3;spacingRight=3;rotatable=0;labelPosition=right;points=[];portConstraint=eastwest;strokeColor=inherit;" parent="wTutFb9Adpz59W1rXgPP-0" vertex="1">
          <mxGeometry y="78" width="270" height="8" as="geometry" />
        </mxCell>
        <mxCell id="wTutFb9Adpz59W1rXgPP-8" value="+ DesiredDeliveryDate {get; set;}: DateTime()" style="text;align=left;verticalAlign=top;spacingLeft=4;spacingRight=4;overflow=hidden;rotatable=0;points=[[0,0.5],[1,0.5]];portConstraint=eastwest;rounded=0;" parent="wTutFb9Adpz59W1rXgPP-0" vertex="1">
          <mxGeometry y="86" width="270" height="26" as="geometry" />
        </mxCell>
        <mxCell id="wTutFb9Adpz59W1rXgPP-9" value="+ DesiredDeliveryTIme {get; set;}: String()" style="text;align=left;verticalAlign=top;spacingLeft=4;spacingRight=4;overflow=hidden;rotatable=0;points=[[0,0.5],[1,0.5]];portConstraint=eastwest;rounded=0;" parent="wTutFb9Adpz59W1rXgPP-0" vertex="1">
          <mxGeometry y="112" width="270" height="26" as="geometry" />
        </mxCell>
        <mxCell id="wTutFb9Adpz59W1rXgPP-13" value="" style="endArrow=block;html=1;rounded=0;edgeStyle=orthogonalEdgeStyle;endFill=0;entryX=0.001;entryY=1.128;entryDx=0;entryDy=0;entryPerimeter=0;exitX=0.5;exitY=0;exitDx=0;exitDy=0;endSize=12;" parent="WIyWlLk6GJQsqaUBKTNV-1" source="wTutFb9Adpz59W1rXgPP-0" target="Ajz1zNzVbMrPSSMoXpSr-39" edge="1">
          <mxGeometry width="50" height="50" relative="1" as="geometry">
            <mxPoint x="-690" y="960" as="sourcePoint" />
            <mxPoint x="-640" y="910" as="targetPoint" />
          </mxGeometry>
        </mxCell>
        <mxCell id="iywWHOVUnnvCQtm9fWCo-0" value="+ Amount {get;}: double" style="text;strokeColor=none;fillColor=none;align=left;verticalAlign=top;spacingLeft=4;spacingRight=4;overflow=hidden;rotatable=0;points=[[0,0.5],[1,0.5]];portConstraint=eastwest;whiteSpace=wrap;html=1;" parent="WIyWlLk6GJQsqaUBKTNV-1" vertex="1">
          <mxGeometry x="-1530" y="-26" width="190" height="26" as="geometry" />
        </mxCell>
        <mxCell id="Noa36CFvEDPg5Y3MZEn8-9" value="&lt;p style=&quot;margin:0px;margin-top:4px;text-align:center;&quot;&gt;«interface»&lt;br&gt;&lt;b&gt;IDiscount&lt;/b&gt;&lt;/p&gt;&lt;hr size=&quot;1&quot;&gt;&lt;p style=&quot;margin:0px;margin-left:4px;&quot;&gt;&lt;br&gt;&lt;/p&gt;&lt;hr size=&quot;1&quot;&gt;&lt;p style=&quot;margin:0px;margin-left:4px;&quot;&gt;+ Info{get; }: string()&lt;br&gt;+ Calculate(List&amp;lt;Item&amp;gt;): double()&lt;/p&gt;&lt;p style=&quot;margin:0px;margin-left:4px;&quot;&gt;+ Apply(List&amp;lt;Item&amp;gt;): double()&lt;br&gt;&lt;/p&gt;&lt;p style=&quot;margin:0px;margin-left:4px;&quot;&gt;+ Update(List&amp;lt;Item&amp;gt;): void()&lt;br&gt;&lt;/p&gt;" style="verticalAlign=top;align=left;overflow=fill;fontSize=12;fontFamily=Helvetica;html=1;whiteSpace=wrap;" parent="WIyWlLk6GJQsqaUBKTNV-1" vertex="1">
          <mxGeometry x="-1060" y="520" width="190" height="140" as="geometry" />
        </mxCell>
        <mxCell id="Noa36CFvEDPg5Y3MZEn8-11" value="" style="endArrow=none;html=1;endSize=12;startArrow=diamondThin;startSize=14;startFill=1;edgeStyle=orthogonalEdgeStyle;rounded=0;entryX=0.5;entryY=0;entryDx=0;entryDy=0;endFill=0;exitX=0;exitY=0.5;exitDx=0;exitDy=0;" parent="WIyWlLk6GJQsqaUBKTNV-1" source="Noa36CFvEDPg5Y3MZEn8-2" target="Noa36CFvEDPg5Y3MZEn8-9" edge="1">
          <mxGeometry relative="1" as="geometry">
            <mxPoint x="-830" y="301" as="sourcePoint" />
            <mxPoint x="-1330" y="380" as="targetPoint" />
            <mxPoint as="offset" />
            <Array as="points">
              <mxPoint x="-965" y="375" />
            </Array>
          </mxGeometry>
        </mxCell>
        <mxCell id="Noa36CFvEDPg5Y3MZEn8-12" value="1" style="edgeLabel;resizable=0;html=1;align=left;verticalAlign=top;fontSize=14;" parent="Noa36CFvEDPg5Y3MZEn8-11" connectable="0" vertex="1">
          <mxGeometry x="-1" relative="1" as="geometry">
            <mxPoint x="-20" y="-30" as="offset" />
          </mxGeometry>
        </mxCell>
        <mxCell id="Noa36CFvEDPg5Y3MZEn8-13" value="n" style="edgeLabel;resizable=0;html=1;align=right;verticalAlign=top;fontSize=14;" parent="Noa36CFvEDPg5Y3MZEn8-11" connectable="0" vertex="1">
          <mxGeometry x="1" relative="1" as="geometry">
            <mxPoint x="15" y="-30" as="offset" />
          </mxGeometry>
        </mxCell>
        <mxCell id="Noa36CFvEDPg5Y3MZEn8-18" value="PercentDiscount" style="swimlane;fontStyle=1;align=center;verticalAlign=top;childLayout=stackLayout;horizontal=1;startSize=26;horizontalStack=0;resizeParent=1;resizeParentMax=0;resizeLast=0;collapsible=1;marginBottom=0;whiteSpace=wrap;html=1;" parent="WIyWlLk6GJQsqaUBKTNV-1" vertex="1">
          <mxGeometry x="-1200" y="730" width="240" height="224" as="geometry" />
        </mxCell>
        <mxCell id="Noa36CFvEDPg5Y3MZEn8-19" value="- _amountSpent: double" style="text;strokeColor=none;fillColor=none;align=left;verticalAlign=top;spacingLeft=4;spacingRight=4;overflow=hidden;rotatable=0;points=[[0,0.5],[1,0.5]];portConstraint=eastwest;whiteSpace=wrap;html=1;" parent="Noa36CFvEDPg5Y3MZEn8-18" vertex="1">
          <mxGeometry y="26" width="240" height="26" as="geometry" />
        </mxCell>
        <mxCell id="Noa36CFvEDPg5Y3MZEn8-20" value="" style="line;strokeWidth=1;fillColor=none;align=left;verticalAlign=middle;spacingTop=-1;spacingLeft=3;spacingRight=3;rotatable=0;labelPosition=right;points=[];portConstraint=eastwest;strokeColor=inherit;" parent="Noa36CFvEDPg5Y3MZEn8-18" vertex="1">
          <mxGeometry y="52" width="240" height="8" as="geometry" />
        </mxCell>
        <mxCell id="Noa36CFvEDPg5Y3MZEn8-21" value="+ Discount{get; -set;}: int" style="text;strokeColor=none;fillColor=none;align=left;verticalAlign=top;spacingLeft=4;spacingRight=4;overflow=hidden;rotatable=0;points=[[0,0.5],[1,0.5]];portConstraint=eastwest;whiteSpace=wrap;html=1;" parent="Noa36CFvEDPg5Y3MZEn8-18" vertex="1">
          <mxGeometry y="60" width="240" height="26" as="geometry" />
        </mxCell>
        <mxCell id="Noa36CFvEDPg5Y3MZEn8-22" value="+ Category {get; set;}: Category" style="text;align=left;verticalAlign=top;spacingLeft=4;spacingRight=4;overflow=hidden;rotatable=0;points=[[0,0.5],[1,0.5]];portConstraint=eastwest;rounded=0;shadow=0;html=0;" parent="Noa36CFvEDPg5Y3MZEn8-18" vertex="1">
          <mxGeometry y="86" width="240" height="26" as="geometry" />
        </mxCell>
        <mxCell id="Noa36CFvEDPg5Y3MZEn8-35" value="" style="line;html=1;strokeWidth=1;align=left;verticalAlign=middle;spacingTop=-1;spacingLeft=3;spacingRight=3;rotatable=0;labelPosition=right;points=[];portConstraint=eastwest;rounded=0;" parent="Noa36CFvEDPg5Y3MZEn8-18" vertex="1">
          <mxGeometry y="112" width="240" height="8" as="geometry" />
        </mxCell>
        <mxCell id="Noa36CFvEDPg5Y3MZEn8-23" value="+ Info{get; }: string" style="text;align=left;verticalAlign=top;spacingLeft=4;spacingRight=4;overflow=hidden;rotatable=0;points=[[0,0.5],[1,0.5]];portConstraint=eastwest;rounded=0;shadow=0;html=0;" parent="Noa36CFvEDPg5Y3MZEn8-18" vertex="1">
          <mxGeometry y="120" width="240" height="26" as="geometry" />
        </mxCell>
        <mxCell id="Noa36CFvEDPg5Y3MZEn8-24" value="+ Apply(List&lt;Item&gt;): double" style="text;align=left;verticalAlign=top;spacingLeft=4;spacingRight=4;overflow=hidden;rotatable=0;points=[[0,0.5],[1,0.5]];portConstraint=eastwest;rounded=0;shadow=0;html=0;" parent="Noa36CFvEDPg5Y3MZEn8-18" vertex="1">
          <mxGeometry y="146" width="240" height="26" as="geometry" />
        </mxCell>
        <mxCell id="Noa36CFvEDPg5Y3MZEn8-25" value="+ Update(List&lt;Item&gt;): void" style="text;align=left;verticalAlign=top;spacingLeft=4;spacingRight=4;overflow=hidden;rotatable=0;points=[[0,0.5],[1,0.5]];portConstraint=eastwest;rounded=0;shadow=0;html=0;" parent="Noa36CFvEDPg5Y3MZEn8-18" vertex="1">
          <mxGeometry y="172" width="240" height="26" as="geometry" />
        </mxCell>
        <mxCell id="CNYj2VtHb43jAfitieCE-26" value="+ CompareTo(PercentDiscount&amp;nbsp;other): int" style="text;strokeColor=none;fillColor=none;align=left;verticalAlign=top;spacingLeft=4;spacingRight=4;overflow=hidden;rotatable=0;points=[[0,0.5],[1,0.5]];portConstraint=eastwest;whiteSpace=wrap;html=1;" parent="Noa36CFvEDPg5Y3MZEn8-18" vertex="1">
          <mxGeometry y="198" width="240" height="26" as="geometry" />
        </mxCell>
        <mxCell id="Noa36CFvEDPg5Y3MZEn8-26" value="PointsDiscount" style="swimlane;fontStyle=1;align=center;verticalAlign=top;childLayout=stackLayout;horizontal=1;startSize=26;horizontalStack=0;resizeParent=1;resizeParentMax=0;resizeLast=0;collapsible=1;marginBottom=0;whiteSpace=wrap;html=1;" parent="WIyWlLk6GJQsqaUBKTNV-1" vertex="1">
          <mxGeometry x="-940" y="754" width="240" height="198" as="geometry" />
        </mxCell>
        <mxCell id="Noa36CFvEDPg5Y3MZEn8-27" value="- _amountSpent: double" style="text;strokeColor=none;fillColor=none;align=left;verticalAlign=top;spacingLeft=4;spacingRight=4;overflow=hidden;rotatable=0;points=[[0,0.5],[1,0.5]];portConstraint=eastwest;whiteSpace=wrap;html=1;" parent="Noa36CFvEDPg5Y3MZEn8-26" vertex="1">
          <mxGeometry y="26" width="240" height="26" as="geometry" />
        </mxCell>
        <mxCell id="Noa36CFvEDPg5Y3MZEn8-28" value="" style="line;strokeWidth=1;fillColor=none;align=left;verticalAlign=middle;spacingTop=-1;spacingLeft=3;spacingRight=3;rotatable=0;labelPosition=right;points=[];portConstraint=eastwest;strokeColor=inherit;" parent="Noa36CFvEDPg5Y3MZEn8-26" vertex="1">
          <mxGeometry y="52" width="240" height="8" as="geometry" />
        </mxCell>
        <mxCell id="Noa36CFvEDPg5Y3MZEn8-29" value="+ Points{get; -set;}: int" style="text;strokeColor=none;fillColor=none;align=left;verticalAlign=top;spacingLeft=4;spacingRight=4;overflow=hidden;rotatable=0;points=[[0,0.5],[1,0.5]];portConstraint=eastwest;whiteSpace=wrap;html=1;" parent="Noa36CFvEDPg5Y3MZEn8-26" vertex="1">
          <mxGeometry y="60" width="240" height="26" as="geometry" />
        </mxCell>
        <mxCell id="Noa36CFvEDPg5Y3MZEn8-36" value="" style="line;html=1;strokeWidth=1;align=left;verticalAlign=middle;spacingTop=-1;spacingLeft=3;spacingRight=3;rotatable=0;labelPosition=right;points=[];portConstraint=eastwest;rounded=0;" parent="Noa36CFvEDPg5Y3MZEn8-26" vertex="1">
          <mxGeometry y="86" width="240" height="8" as="geometry" />
        </mxCell>
        <mxCell id="Noa36CFvEDPg5Y3MZEn8-31" value="+ Info{get; }: string" style="text;align=left;verticalAlign=top;spacingLeft=4;spacingRight=4;overflow=hidden;rotatable=0;points=[[0,0.5],[1,0.5]];portConstraint=eastwest;rounded=0;shadow=0;html=0;" parent="Noa36CFvEDPg5Y3MZEn8-26" vertex="1">
          <mxGeometry y="94" width="240" height="26" as="geometry" />
        </mxCell>
        <mxCell id="Noa36CFvEDPg5Y3MZEn8-32" value="+ Apply(List&lt;Item&gt;): double" style="text;align=left;verticalAlign=top;spacingLeft=4;spacingRight=4;overflow=hidden;rotatable=0;points=[[0,0.5],[1,0.5]];portConstraint=eastwest;rounded=0;shadow=0;html=0;" parent="Noa36CFvEDPg5Y3MZEn8-26" vertex="1">
          <mxGeometry y="120" width="240" height="26" as="geometry" />
        </mxCell>
        <mxCell id="Noa36CFvEDPg5Y3MZEn8-33" value="+ Update(List&lt;Item&gt;): void" style="text;align=left;verticalAlign=top;spacingLeft=4;spacingRight=4;overflow=hidden;rotatable=0;points=[[0,0.5],[1,0.5]];portConstraint=eastwest;rounded=0;shadow=0;html=0;" parent="Noa36CFvEDPg5Y3MZEn8-26" vertex="1">
          <mxGeometry y="146" width="240" height="26" as="geometry" />
        </mxCell>
        <mxCell id="CNYj2VtHb43jAfitieCE-24" value="+ CompareTo(PointsDiscount other): int" style="text;strokeColor=none;fillColor=none;align=left;verticalAlign=top;spacingLeft=4;spacingRight=4;overflow=hidden;rotatable=0;points=[[0,0.5],[1,0.5]];portConstraint=eastwest;whiteSpace=wrap;html=1;" parent="Noa36CFvEDPg5Y3MZEn8-26" vertex="1">
          <mxGeometry y="172" width="240" height="26" as="geometry" />
        </mxCell>
        <mxCell id="Noa36CFvEDPg5Y3MZEn8-37" value="" style="endArrow=none;html=1;endSize=12;startArrow=blockThin;startSize=14;startFill=0;edgeStyle=orthogonalEdgeStyle;rounded=0;entryX=0.5;entryY=0;entryDx=0;entryDy=0;endFill=0;exitX=0.106;exitY=1.014;exitDx=0;exitDy=0;dashed=1;exitPerimeter=0;" parent="WIyWlLk6GJQsqaUBKTNV-1" source="Noa36CFvEDPg5Y3MZEn8-9" target="Noa36CFvEDPg5Y3MZEn8-18" edge="1">
          <mxGeometry relative="1" as="geometry">
            <mxPoint x="-935" y="585" as="sourcePoint" />
            <mxPoint x="-1120" y="616" as="targetPoint" />
            <mxPoint as="offset" />
            <Array as="points">
              <mxPoint x="-1040" y="710" />
              <mxPoint x="-1080" y="710" />
            </Array>
          </mxGeometry>
        </mxCell>
        <mxCell id="Noa36CFvEDPg5Y3MZEn8-40" value="" style="endArrow=none;html=1;endSize=12;startArrow=blockThin;startSize=14;startFill=0;edgeStyle=orthogonalEdgeStyle;rounded=0;entryX=0.5;entryY=0;entryDx=0;entryDy=0;endFill=0;exitX=0.75;exitY=1;exitDx=0;exitDy=0;dashed=1;" parent="WIyWlLk6GJQsqaUBKTNV-1" source="Noa36CFvEDPg5Y3MZEn8-9" target="Noa36CFvEDPg5Y3MZEn8-26" edge="1">
          <mxGeometry relative="1" as="geometry">
            <mxPoint x="-1015" y="556" as="sourcePoint" />
            <mxPoint x="-1110" y="650" as="targetPoint" />
            <mxPoint as="offset" />
            <Array as="points">
              <mxPoint x="-918" y="710" />
              <mxPoint x="-820" y="710" />
            </Array>
          </mxGeometry>
        </mxCell>
        <mxCell id="CNYj2VtHb43jAfitieCE-0" value="&lt;p style=&quot;margin:0px;margin-top:4px;text-align:center;&quot;&gt;«interface»&lt;br&gt;&lt;b&gt;ICloneable&lt;/b&gt;&lt;/p&gt;&lt;hr size=&quot;1&quot;&gt;&lt;p style=&quot;margin:0px;margin-left:4px;&quot;&gt;&lt;br&gt;&lt;/p&gt;&lt;hr size=&quot;1&quot;&gt;&lt;p style=&quot;margin:0px;margin-left:4px;&quot;&gt;+ Clone(): object&lt;/p&gt;" style="verticalAlign=top;align=left;overflow=fill;fontSize=12;fontFamily=Helvetica;html=1;whiteSpace=wrap;" parent="WIyWlLk6GJQsqaUBKTNV-1" vertex="1">
          <mxGeometry x="-390" y="623.5" width="190" height="95" as="geometry" />
        </mxCell>
        <mxCell id="CNYj2VtHb43jAfitieCE-1" value="" style="endArrow=none;html=1;endSize=12;startArrow=blockThin;startSize=14;startFill=0;edgeStyle=orthogonalEdgeStyle;rounded=0;entryX=0.5;entryY=0;entryDx=0;entryDy=0;endFill=0;exitX=0.5;exitY=1;exitDx=0;exitDy=0;dashed=1;" parent="WIyWlLk6GJQsqaUBKTNV-1" source="CNYj2VtHb43jAfitieCE-0" target="Ajz1zNzVbMrPSSMoXpSr-17" edge="1">
          <mxGeometry relative="1" as="geometry">
            <mxPoint x="-290" y="692" as="sourcePoint" />
            <mxPoint x="-213" y="786" as="targetPoint" />
            <mxPoint as="offset" />
            <Array as="points">
              <mxPoint x="-295" y="750" />
              <mxPoint x="-220" y="750" />
            </Array>
          </mxGeometry>
        </mxCell>
        <mxCell id="CNYj2VtHb43jAfitieCE-2" value="" style="endArrow=none;html=1;endSize=12;startArrow=blockThin;startSize=14;startFill=0;edgeStyle=orthogonalEdgeStyle;rounded=0;entryX=0;entryY=0.5;entryDx=0;entryDy=0;endFill=0;dashed=1;exitX=1;exitY=0.75;exitDx=0;exitDy=0;" parent="WIyWlLk6GJQsqaUBKTNV-1" source="CNYj2VtHb43jAfitieCE-0" target="sBGS1Uir1IaNzIVXZRek-17" edge="1">
          <mxGeometry relative="1" as="geometry">
            <mxPoint x="-150" y="673" as="sourcePoint" />
            <mxPoint x="-35" y="710" as="targetPoint" />
            <mxPoint as="offset" />
            <Array as="points">
              <mxPoint x="-160" y="695" />
              <mxPoint x="-160" y="661" />
            </Array>
          </mxGeometry>
        </mxCell>
        <mxCell id="CNYj2VtHb43jAfitieCE-3" value="" style="endArrow=none;html=1;endSize=12;startArrow=blockThin;startSize=14;startFill=0;edgeStyle=orthogonalEdgeStyle;rounded=0;entryX=0.519;entryY=1.077;entryDx=0;entryDy=0;endFill=0;exitX=0.5;exitY=0;exitDx=0;exitDy=0;dashed=1;entryPerimeter=0;" parent="WIyWlLk6GJQsqaUBKTNV-1" source="CNYj2VtHb43jAfitieCE-0" target="CNYj2VtHb43jAfitieCE-4" edge="1">
          <mxGeometry relative="1" as="geometry">
            <mxPoint x="-500" y="600" as="sourcePoint" />
            <mxPoint x="-425" y="710" as="targetPoint" />
            <mxPoint as="offset" />
            <Array as="points">
              <mxPoint x="-295" y="600" />
              <mxPoint x="-367" y="600" />
            </Array>
          </mxGeometry>
        </mxCell>
        <mxCell id="CNYj2VtHb43jAfitieCE-11" value="&lt;p style=&quot;margin:0px;margin-top:4px;text-align:center;&quot;&gt;«interface»&lt;br&gt;&lt;b&gt;IEquatable&amp;lt;&amp;gt;&lt;/b&gt;&lt;br&gt;&lt;/p&gt;&lt;hr size=&quot;1&quot;&gt;&lt;p style=&quot;margin:0px;margin-left:4px;&quot;&gt;&lt;br&gt;&lt;/p&gt;&lt;hr size=&quot;1&quot;&gt;&lt;p style=&quot;margin:0px;margin-left:4px;&quot;&gt;+ Equals(object other): bool&lt;/p&gt;" style="verticalAlign=top;align=left;overflow=fill;fontSize=12;fontFamily=Helvetica;html=1;whiteSpace=wrap;" parent="WIyWlLk6GJQsqaUBKTNV-1" vertex="1">
          <mxGeometry x="-630" y="743" width="190" height="95" as="geometry" />
        </mxCell>
        <mxCell id="CNYj2VtHb43jAfitieCE-17" value="" style="endArrow=none;html=1;endSize=12;startArrow=blockThin;startSize=14;startFill=0;edgeStyle=orthogonalEdgeStyle;rounded=0;entryX=0.25;entryY=0;entryDx=0;entryDy=0;endFill=0;exitX=1.023;exitY=0.875;exitDx=0;exitDy=0;dashed=1;exitPerimeter=0;" parent="WIyWlLk6GJQsqaUBKTNV-1" source="CNYj2VtHb43jAfitieCE-11" target="Ajz1zNzVbMrPSSMoXpSr-17" edge="1">
          <mxGeometry relative="1" as="geometry">
            <mxPoint x="-365.05" y="743" as="sourcePoint" />
            <mxPoint x="-290.05" y="862" as="targetPoint" />
            <mxPoint as="offset" />
            <Array as="points">
              <mxPoint x="-280" y="826" />
              <mxPoint x="-280" y="838" />
            </Array>
          </mxGeometry>
        </mxCell>
        <mxCell id="CNYj2VtHb43jAfitieCE-18" value="" style="endArrow=none;html=1;endSize=12;startArrow=blockThin;startSize=14;startFill=0;edgeStyle=orthogonalEdgeStyle;rounded=0;entryX=1.011;entryY=0.042;entryDx=0;entryDy=0;endFill=0;exitX=-0.007;exitY=0.92;exitDx=0;exitDy=0;dashed=1;exitPerimeter=0;entryPerimeter=0;" parent="WIyWlLk6GJQsqaUBKTNV-1" source="CNYj2VtHb43jAfitieCE-11" target="E396M5tWe0iOBY8pmZY7-40" edge="1">
          <mxGeometry relative="1" as="geometry">
            <mxPoint x="-670" y="926" as="sourcePoint" />
            <mxPoint x="-595" y="1045" as="targetPoint" />
            <mxPoint as="offset" />
            <Array as="points">
              <mxPoint x="-670" y="830" />
              <mxPoint x="-670" y="1047" />
            </Array>
          </mxGeometry>
        </mxCell>
        <mxCell id="CNYj2VtHb43jAfitieCE-19" value="" style="endArrow=none;html=1;endSize=12;startArrow=blockThin;startSize=14;startFill=0;edgeStyle=orthogonalEdgeStyle;rounded=0;entryX=0;entryY=0.5;entryDx=0;entryDy=0;endFill=0;exitX=1.012;exitY=0.632;exitDx=0;exitDy=0;dashed=1;exitPerimeter=0;" parent="WIyWlLk6GJQsqaUBKTNV-1" source="CNYj2VtHb43jAfitieCE-11" target="CNYj2VtHb43jAfitieCE-15" edge="1">
          <mxGeometry relative="1" as="geometry">
            <mxPoint x="-265" y="749" as="sourcePoint" />
            <mxPoint x="-190" y="868" as="targetPoint" />
            <mxPoint as="offset" />
            <Array as="points">
              <mxPoint x="-190" y="803" />
              <mxPoint x="-190" y="747" />
            </Array>
          </mxGeometry>
        </mxCell>
        <mxCell id="CNYj2VtHb43jAfitieCE-20" value="&lt;p style=&quot;margin:0px;margin-top:4px;text-align:center;&quot;&gt;«interface»&lt;br&gt;&lt;b&gt;IComparable&amp;lt;&amp;gt;&lt;/b&gt;&lt;br&gt;&lt;/p&gt;&lt;hr size=&quot;1&quot;&gt;&lt;p style=&quot;margin:0px;margin-left:4px;&quot;&gt;&lt;br&gt;&lt;/p&gt;&lt;hr size=&quot;1&quot;&gt;&lt;p style=&quot;margin:0px;margin-left:4px;&quot;&gt;+ CompareTo(object other): int&lt;/p&gt;" style="verticalAlign=top;align=left;overflow=fill;fontSize=12;fontFamily=Helvetica;html=1;whiteSpace=wrap;" parent="WIyWlLk6GJQsqaUBKTNV-1" vertex="1">
          <mxGeometry x="-640" y="610" width="190" height="95" as="geometry" />
        </mxCell>
        <mxCell id="CNYj2VtHb43jAfitieCE-21" value="" style="endArrow=none;html=1;endSize=12;startArrow=blockThin;startSize=14;startFill=0;edgeStyle=orthogonalEdgeStyle;rounded=0;endFill=0;exitX=1.015;exitY=0.868;exitDx=0;exitDy=0;dashed=1;exitPerimeter=0;entryX=0;entryY=0.5;entryDx=0;entryDy=0;" parent="WIyWlLk6GJQsqaUBKTNV-1" source="CNYj2VtHb43jAfitieCE-20" target="CNYj2VtHb43jAfitieCE-22" edge="1">
          <mxGeometry relative="1" as="geometry">
            <mxPoint x="-389.04999999999995" y="718.5" as="sourcePoint" />
            <mxPoint x="10" y="780" as="targetPoint" />
            <mxPoint as="offset" />
            <Array as="points">
              <mxPoint x="-410" y="692" />
              <mxPoint x="-410" y="770" />
              <mxPoint x="20" y="770" />
            </Array>
          </mxGeometry>
        </mxCell>
        <mxCell id="CNYj2VtHb43jAfitieCE-27" value="" style="endArrow=none;html=1;endSize=12;startArrow=blockThin;startSize=14;startFill=0;edgeStyle=orthogonalEdgeStyle;rounded=0;entryX=0.75;entryY=0;entryDx=0;entryDy=0;endFill=0;exitX=0;exitY=1;exitDx=0;exitDy=0;dashed=1;" parent="WIyWlLk6GJQsqaUBKTNV-1" source="CNYj2VtHb43jAfitieCE-20" target="Noa36CFvEDPg5Y3MZEn8-26" edge="1">
          <mxGeometry relative="1" as="geometry">
            <mxPoint x="-907" y="670" as="sourcePoint" />
            <mxPoint x="-810" y="764" as="targetPoint" />
            <mxPoint as="offset" />
            <Array as="points">
              <mxPoint x="-760" y="705" />
            </Array>
          </mxGeometry>
        </mxCell>
        <mxCell id="CNYj2VtHb43jAfitieCE-28" value="" style="endArrow=none;html=1;endSize=12;startArrow=blockThin;startSize=14;startFill=0;edgeStyle=orthogonalEdgeStyle;rounded=0;entryX=0.75;entryY=0;entryDx=0;entryDy=0;endFill=0;exitX=0;exitY=0.75;exitDx=0;exitDy=0;dashed=1;" parent="WIyWlLk6GJQsqaUBKTNV-1" source="CNYj2VtHb43jAfitieCE-20" target="Noa36CFvEDPg5Y3MZEn8-18" edge="1">
          <mxGeometry relative="1" as="geometry">
            <mxPoint x="-640" y="677" as="sourcePoint" />
            <mxPoint x="-755" y="743" as="targetPoint" />
            <mxPoint as="offset" />
            <Array as="points">
              <mxPoint x="-1020" y="681" />
            </Array>
          </mxGeometry>
        </mxCell>
      </root>
    </mxGraphModel>
  </diagram>
</mxfile>
